<svg width="568.96" height="70.627" viewBox="0 0 568.96 70.627" xmlns="http://www.w3.org/2000/svg"><g id="svgGroup" stroke-linecap="round" fill-rule="evenodd" font-size="9pt" stroke="#000" stroke-width="0" fill="#ffffff" style="stroke:#000;stroke-width:0;fill:#ffffff"><path d="M 416.647 56.407 L 406.535 56.407 L 406.535 1.107 L 425.89 1.107 L 435.449 49.297 L 436.871 49.297 L 446.43 1.107 L 465.785 1.107 L 465.785 56.407 L 455.673 56.407 L 455.673 8.77 L 454.251 8.77 L 444.771 56.407 L 427.549 56.407 L 418.069 8.77 L 416.647 8.77 L 416.647 56.407 Z M 504.337 56.407 L 486.483 56.407 L 472.421 1.107 L 483.165 1.107 L 494.857 49.692 L 495.963 49.692 L 507.655 1.107 L 518.399 1.107 L 504.337 56.407 Z M 179.252 56.407 L 169.298 56.407 L 169.298 1.107 L 179.252 1.107 L 179.252 22.042 L 180.674 22.042 Q 181.238 20.914 182.367 19.787 A 13.339 13.339 0 0 1 182.649 19.514 A 8.525 8.525 0 0 1 184.163 18.391 Q 184.91 17.95 185.817 17.585 A 15.291 15.291 0 0 1 186.243 17.42 A 11.95 11.95 0 0 1 188.232 16.891 Q 189.88 16.591 191.971 16.591 Q 196.553 16.591 199.989 18.684 Q 203.426 20.778 205.322 24.451 Q 207.218 28.125 207.218 33.023 L 207.218 56.407 L 197.264 56.407 L 197.264 33.813 A 14.353 14.353 0 0 0 197.062 31.322 Q 196.602 28.715 195.091 27.177 A 7.041 7.041 0 0 0 191.87 25.333 Q 190.535 24.965 188.89 24.965 A 11.043 11.043 0 0 0 185.862 25.358 A 8.05 8.05 0 0 0 181.78 28.006 A 10.148 10.148 0 0 0 179.889 31.634 Q 179.451 33.097 179.314 34.848 A 21.193 21.193 0 0 0 179.252 36.499 L 179.252 56.407 Z M 54.669 40.607 L 54.669 17.223 L 64.623 17.223 L 64.623 39.817 A 14.353 14.353 0 0 0 64.825 42.307 Q 65.285 44.915 66.795 46.453 A 7.041 7.041 0 0 0 70.017 48.296 Q 71.352 48.665 72.997 48.665 A 11.043 11.043 0 0 0 76.025 48.272 A 8.05 8.05 0 0 0 80.107 45.623 A 10.148 10.148 0 0 0 81.998 41.996 Q 82.436 40.532 82.573 38.782 A 21.193 21.193 0 0 0 82.635 37.131 L 82.635 17.223 L 92.589 17.223 L 92.589 56.407 L 82.793 56.407 L 82.793 51.272 L 81.371 51.272 Q 80.423 53.247 77.816 55.143 Q 75.209 57.039 69.916 57.039 Q 65.334 57.039 61.897 54.945 Q 58.461 52.852 56.565 49.139 A 17.232 17.232 0 0 1 54.863 43.581 A 22.053 22.053 0 0 1 54.669 40.607 Z M 261.728 37.368 L 261.728 36.262 Q 261.728 29.863 264.414 25.36 Q 267.1 20.857 271.721 18.487 A 21.708 21.708 0 0 1 280.193 16.181 A 26.116 26.116 0 0 1 282.031 16.117 A 26.702 26.702 0 0 1 286.559 16.482 Q 289.173 16.931 291.343 17.937 A 16.433 16.433 0 0 1 291.669 18.092 Q 295.698 20.067 298.186 23.503 Q 300.675 26.94 301.465 31.285 L 291.827 33.339 A 11.832 11.832 0 0 0 291.019 30.304 A 10.564 10.564 0 0 0 290.405 29.073 Q 289.299 27.177 287.284 26.071 Q 285.463 25.071 282.833 24.975 A 15.547 15.547 0 0 0 282.268 24.965 A 11.918 11.918 0 0 0 278.912 25.424 A 10.483 10.483 0 0 0 276.856 26.268 A 9.197 9.197 0 0 0 273.241 29.823 A 11.09 11.09 0 0 0 273.064 30.139 A 11.055 11.055 0 0 0 271.988 33.178 Q 271.72 34.485 271.687 35.987 A 19.41 19.41 0 0 0 271.682 36.42 L 271.682 37.21 A 16.601 16.601 0 0 0 271.91 40.038 Q 272.191 41.665 272.82 43.004 A 9.838 9.838 0 0 0 273.064 43.49 A 9.647 9.647 0 0 0 275.257 46.261 A 9.011 9.011 0 0 0 276.856 47.361 A 10.906 10.906 0 0 0 281.299 48.63 A 13.196 13.196 0 0 0 282.268 48.665 A 13.925 13.925 0 0 0 284.87 48.437 Q 287.499 47.937 289.101 46.334 A 10.169 10.169 0 0 0 291.539 42.335 A 13.581 13.581 0 0 0 292.064 40.212 L 301.702 42.503 Q 300.675 46.69 298.186 50.126 A 17.216 17.216 0 0 1 291.919 55.413 A 20.077 20.077 0 0 1 291.669 55.538 Q 287.64 57.513 282.031 57.513 A 23.556 23.556 0 0 1 275.357 56.593 A 20.809 20.809 0 0 1 271.721 55.143 Q 267.1 52.773 264.414 48.27 A 18.519 18.519 0 0 1 262.171 42.254 A 25.661 25.661 0 0 1 261.728 37.368 Z M 546.207 56.407 L 523.455 56.407 L 523.455 47.243 L 530.723 47.243 L 530.723 10.271 L 523.455 10.271 L 523.455 1.107 L 546.207 1.107 A 35.204 35.204 0 0 1 552.648 1.658 Q 556.311 2.341 559.177 3.868 A 17.402 17.402 0 0 1 563.152 6.755 Q 568.108 11.576 568.834 20.397 A 38.368 38.368 0 0 1 568.959 23.543 L 568.959 33.971 Q 568.959 45.11 563.152 50.758 A 18.515 18.515 0 0 1 555.747 55.082 Q 551.602 56.407 546.207 56.407 Z M 230.602 32.707 L 241.346 32.707 L 241.346 30.495 A 7.206 7.206 0 0 0 241.037 28.338 A 5.871 5.871 0 0 0 239.608 25.952 A 5.238 5.238 0 0 0 237.653 24.722 Q 236.825 24.414 235.797 24.28 A 13.267 13.267 0 0 0 234.078 24.175 A 12.92 12.92 0 0 0 232.04 24.325 Q 229.825 24.679 228.548 25.873 A 7.826 7.826 0 0 0 226.382 29.443 A 9.871 9.871 0 0 0 226.178 30.258 L 217.014 27.177 Q 217.962 24.175 220.055 21.686 A 13.732 13.732 0 0 1 223.228 18.946 A 17.995 17.995 0 0 1 225.664 17.657 A 17.121 17.121 0 0 1 229.299 16.552 Q 230.987 16.226 232.92 16.144 A 31.234 31.234 0 0 1 234.236 16.117 A 25.108 25.108 0 0 1 239.176 16.574 Q 242.166 17.175 244.498 18.563 A 14.111 14.111 0 0 1 246.481 19.988 A 12.498 12.498 0 0 1 250.522 26.856 A 19.287 19.287 0 0 1 250.984 31.206 L 250.984 45.821 A 3.673 3.673 0 0 0 251.088 46.737 Q 251.463 48.191 253.196 48.191 L 256.356 48.191 L 256.356 56.407 L 249.72 56.407 Q 246.797 56.407 244.901 54.985 Q 243.069 53.611 243.007 51.352 A 5.807 5.807 0 0 1 243.005 51.193 L 243.005 51.114 L 241.504 51.114 A 5.031 5.031 0 0 1 241.247 51.729 Q 240.86 52.519 240.082 53.602 A 6.988 6.988 0 0 1 238.872 54.882 Q 238.26 55.394 237.475 55.856 A 14.291 14.291 0 0 1 236.606 56.328 A 9.652 9.652 0 0 1 234.584 57.05 Q 232.695 57.513 230.128 57.513 A 20.573 20.573 0 0 1 225.924 57.1 A 16.533 16.533 0 0 1 222.623 56.051 A 12.621 12.621 0 0 1 218.788 53.481 A 11.839 11.839 0 0 1 217.369 51.785 A 10.776 10.776 0 0 1 215.642 47.464 A 14.556 14.556 0 0 1 215.434 44.952 A 13.866 13.866 0 0 1 215.772 41.812 A 10.126 10.126 0 0 1 217.369 38.197 A 11.413 11.413 0 0 1 221.505 34.655 A 14.241 14.241 0 0 1 222.741 34.089 A 18.783 18.783 0 0 1 227.17 32.935 A 24.816 24.816 0 0 1 230.602 32.707 Z M 101.753 37.289 L 101.753 36.341 A 26.126 26.126 0 0 1 102.273 31.004 A 19.724 19.724 0 0 1 104.202 25.636 Q 106.651 21.094 111.075 18.605 A 19.292 19.292 0 0 1 117.999 16.336 A 24.778 24.778 0 0 1 121.345 16.117 Q 127.112 16.117 131.378 18.684 Q 135.644 21.252 138.014 25.794 Q 140.384 30.337 140.384 36.341 L 140.384 39.738 L 111.865 39.738 A 9.697 9.697 0 0 0 112.598 43.172 A 8.684 8.684 0 0 0 114.867 46.295 A 9.952 9.952 0 0 0 121.169 48.807 A 12.877 12.877 0 0 0 121.819 48.823 A 15.308 15.308 0 0 0 124.055 48.671 Q 126.577 48.298 127.981 47.006 A 13.477 13.477 0 0 0 130.154 44.467 A 11.802 11.802 0 0 0 130.983 42.977 L 139.12 47.243 Q 138.214 48.926 136.645 50.847 A 36.771 36.771 0 0 1 135.92 51.706 A 15.279 15.279 0 0 1 133.128 54.192 A 20.623 20.623 0 0 1 130.351 55.814 A 15.263 15.263 0 0 1 126.946 56.975 Q 125.3 57.341 123.377 57.458 A 30.881 30.881 0 0 1 121.503 57.513 Q 115.657 57.513 111.193 55.024 Q 106.73 52.536 104.241 47.993 A 19.887 19.887 0 0 1 102.103 41.683 A 26.506 26.506 0 0 1 101.753 37.289 Z M 308.022 37.289 L 308.022 36.341 A 26.126 26.126 0 0 1 308.542 31.004 A 19.724 19.724 0 0 1 310.471 25.636 Q 312.92 21.094 317.344 18.605 A 19.292 19.292 0 0 1 324.268 16.336 A 24.778 24.778 0 0 1 327.614 16.117 Q 333.381 16.117 337.647 18.684 Q 341.913 21.252 344.283 25.794 Q 346.653 30.337 346.653 36.341 L 346.653 39.738 L 318.134 39.738 A 9.697 9.697 0 0 0 318.867 43.172 A 8.684 8.684 0 0 0 321.136 46.295 A 9.952 9.952 0 0 0 327.438 48.807 A 12.877 12.877 0 0 0 328.088 48.823 A 15.308 15.308 0 0 0 330.324 48.671 Q 332.846 48.298 334.25 47.006 A 13.477 13.477 0 0 0 336.423 44.467 A 11.802 11.802 0 0 0 337.252 42.977 L 345.389 47.243 Q 344.483 48.926 342.914 50.847 A 36.771 36.771 0 0 1 342.189 51.706 A 15.279 15.279 0 0 1 339.397 54.192 A 20.623 20.623 0 0 1 336.62 55.814 A 15.263 15.263 0 0 1 333.215 56.975 Q 331.569 57.341 329.646 57.458 A 30.881 30.881 0 0 1 327.772 57.513 Q 321.926 57.513 317.462 55.024 Q 312.999 52.536 310.51 47.993 A 19.887 19.887 0 0 1 308.372 41.683 A 26.506 26.506 0 0 1 308.022 37.289 Z M 0.001 35.393 L 0.001 22.121 A 29.641 29.641 0 0 1 0.664 15.654 Q 1.662 11.191 4.16 7.93 A 17.68 17.68 0 0 1 6.163 5.728 A 20.739 20.739 0 0 1 15.809 0.741 A 30.779 30.779 0 0 1 22.753 0.001 A 30.779 30.779 0 0 1 29.697 0.741 A 20.739 20.739 0 0 1 39.343 5.728 A 18.544 18.544 0 0 1 44.674 14.954 Q 45.44 17.951 45.5 21.513 A 36.191 36.191 0 0 1 45.505 22.121 L 45.505 35.393 A 29.641 29.641 0 0 1 44.841 41.86 Q 43.844 46.323 41.346 49.584 A 17.68 17.68 0 0 1 39.343 51.785 A 20.739 20.739 0 0 1 29.697 56.773 A 30.779 30.779 0 0 1 22.753 57.513 A 30.779 30.779 0 0 1 15.809 56.773 A 20.739 20.739 0 0 1 6.163 51.785 A 18.544 18.544 0 0 1 0.832 42.559 Q 0.066 39.563 0.006 36.001 A 36.191 36.191 0 0 1 0.001 35.393 Z M 365.455 56.407 L 355.501 56.407 L 355.501 17.223 L 365.297 17.223 L 365.297 21.647 L 366.719 21.647 A 6.979 6.979 0 0 1 367.785 19.703 A 5.93 5.93 0 0 1 369.602 18.171 A 8.859 8.859 0 0 1 372.536 17.196 A 11.542 11.542 0 0 1 374.303 17.065 L 379.043 17.065 L 379.043 25.913 L 374.145 25.913 A 11.717 11.717 0 0 0 371.336 26.233 A 8.54 8.54 0 0 0 367.904 27.927 A 6.357 6.357 0 0 0 365.844 31.137 Q 365.529 32.21 365.469 33.509 A 13.503 13.503 0 0 0 365.455 34.129 L 365.455 56.407 Z M 35.077 35.709 L 35.077 21.805 A 16.177 16.177 0 0 0 34.631 17.899 A 11.305 11.305 0 0 0 31.838 12.72 A 10.592 10.592 0 0 0 26.483 9.729 A 16.134 16.134 0 0 0 22.753 9.323 Q 16.986 9.323 13.707 12.72 A 11.402 11.402 0 0 0 10.749 18.474 A 16.494 16.494 0 0 0 10.429 21.805 L 10.429 35.709 A 15.975 15.975 0 0 0 10.885 39.634 A 11.261 11.261 0 0 0 13.707 44.794 A 10.799 10.799 0 0 0 19.314 47.842 A 16.07 16.07 0 0 0 22.753 48.191 A 16.153 16.153 0 0 0 26.464 47.789 Q 29.535 47.065 31.602 45.033 A 10.34 10.34 0 0 0 31.838 44.794 A 11.43 11.43 0 0 0 34.745 39.118 A 16.619 16.619 0 0 0 35.077 35.709 Z M 541.151 10.587 L 541.151 46.927 L 546.365 46.927 Q 550.433 46.927 553.094 45.552 A 8.53 8.53 0 0 0 555.608 43.609 Q 558.531 40.291 558.531 34.287 L 558.531 23.227 A 20.336 20.336 0 0 0 558.231 19.618 Q 557.595 16.094 555.608 13.865 Q 552.685 10.587 546.365 10.587 L 541.151 10.587 Z M 34.682 70.627 L 26.387 70.627 A 10.115 10.115 0 0 1 23.489 70.231 A 7.9 7.9 0 0 1 20.106 68.217 A 8.062 8.062 0 0 1 17.872 63.833 A 11.541 11.541 0 0 1 17.697 61.779 L 17.697 56.407 L 27.809 56.407 L 27.809 60.199 A 3.673 3.673 0 0 0 27.913 61.115 Q 28.288 62.569 30.021 62.569 L 34.682 62.569 L 34.682 70.627 Z M 124.031 12.799 L 115.341 12.799 L 121.187 1.107 L 132.405 1.107 L 124.031 12.799 Z M 111.944 32.312 L 130.272 32.312 A 8.664 8.664 0 0 0 129.536 29.466 A 7.546 7.546 0 0 0 127.546 26.861 A 8.37 8.37 0 0 0 123.807 25.061 A 12.075 12.075 0 0 0 121.266 24.807 Q 117.237 24.807 114.867 26.861 A 8.621 8.621 0 0 0 112.117 31.458 A 11.148 11.148 0 0 0 111.944 32.312 Z M 318.213 32.312 L 336.541 32.312 A 8.664 8.664 0 0 0 335.805 29.466 A 7.546 7.546 0 0 0 333.815 26.861 A 8.37 8.37 0 0 0 330.076 25.061 A 12.075 12.075 0 0 0 327.535 24.807 Q 323.506 24.807 321.136 26.861 A 8.621 8.621 0 0 0 318.386 31.458 A 11.148 11.148 0 0 0 318.213 32.312 Z M 241.346 40.923 L 241.346 40.133 L 231.313 40.133 A 10.462 10.462 0 0 0 229.626 40.26 Q 228.029 40.522 226.968 41.318 Q 225.388 42.503 225.388 44.636 A 4.436 4.436 0 0 0 225.803 46.571 Q 226.217 47.439 227.044 48.109 A 6.591 6.591 0 0 0 227.047 48.112 A 5.388 5.388 0 0 0 228.786 49.03 Q 230.088 49.455 231.866 49.455 A 12.313 12.313 0 0 0 234.902 49.099 A 9.006 9.006 0 0 0 238.699 47.124 Q 241.346 44.794 241.346 40.923 Z" vector-effect="non-scaling-stroke"/></g></svg>